<?xml version="1.0" standalone="no"?>
<!DOCTYPE svg PUBLIC "-//W3C//DTD SVG 20010904//EN"
 "http://www.w3.org/TR/2001/REC-SVG-20010904/DTD/svg10.dtd">
<svg version="1.0" xmlns="http://www.w3.org/2000/svg"
 width="500.000000pt" height="500.000000pt" viewBox="0 0 500.000000 500.000000"
 preserveAspectRatio="xMidYMid meet">

<g transform="translate(0.000000,500.000000) scale(0.100000,-0.100000)"
fill="#000000" stroke="none">
<path d="M3326 2724 c-32 -32 -13 -74 34 -74 32 0 50 17 50 47 0 38 -55 56
-84 27z"/>
<path d="M2127 2714 c-4 -4 -7 -94 -7 -201 l0 -193 45 0 45 0 -2 198 -3 197
-35 3 c-20 2 -39 0 -43 -4z"/>
<path d="M4322 2687 c-39 -40 -40 -47 -6 -47 21 0 124 64 124 77 0 2 -19 3
-43 3 -36 0 -49 -6 -75 -33z"/>
<path d="M1740 2505 l0 -185 45 0 45 0 0 49 0 48 70 6 c117 10 168 59 158 151
-10 89 -59 116 -213 116 l-105 0 0 -185z m207 107 c19 -12 31 -55 22 -80 -10
-27 -46 -42 -100 -42 l-39 0 0 65 0 65 53 0 c28 0 57 -4 64 -8z"/>
<path d="M2323 2599 c-41 -12 -46 -21 -31 -54 8 -18 16 -24 27 -19 31 14 101
16 116 4 29 -24 17 -40 -27 -40 -60 0 -116 -18 -128 -40 -20 -36 -12 -87 16
-109 33 -26 109 -28 142 -5 20 14 22 14 22 0 0 -12 11 -16 41 -16 l41 0 -4
108 c-2 70 -9 115 -18 130 -30 46 -116 64 -197 41z m127 -183 c0 -17 -9 -27
-29 -36 -40 -16 -71 -5 -71 25 0 27 11 33 63 34 33 1 37 -2 37 -23z"/>
<path d="M2610 2465 l0 -145 39 0 39 0 4 91 c3 81 6 93 27 110 29 24 63 24 84
1 13 -15 17 -39 17 -110 l0 -92 40 0 40 0 0 111 0 111 -34 34 c-28 28 -42 34
-75 34 -23 0 -55 -7 -71 -15 -27 -14 -30 -14 -30 0 0 11 -11 15 -40 15 l-40 0
0 -145z"/>
<path d="M3041 2592 c-48 -24 -73 -62 -78 -119 -5 -57 18 -102 69 -134 43 -27
155 -24 187 5 l21 19 -21 23 c-19 20 -23 21 -47 8 -15 -8 -35 -14 -45 -14 -26
0 -74 26 -80 45 -6 13 9 15 105 15 l111 0 -6 46 c-11 99 -122 154 -216 106z
m119 -62 c33 -33 24 -40 -50 -40 -67 0 -70 1 -60 20 23 42 78 52 110 20z"/>
<path d="M3320 2458 c0 -84 -4 -159 -9 -167 -5 -8 -19 -12 -34 -9 -19 4 -28
-1 -36 -19 -6 -13 -11 -28 -11 -33 0 -16 67 -22 105 -10 58 19 65 45 65 230
l0 160 -40 0 -40 0 0 -152z"/>
<path d="M3513 2595 c-35 -15 -39 -25 -23 -56 9 -15 15 -17 30 -9 26 14 103
13 118 -2 26 -26 13 -38 -38 -38 -66 0 -117 -22 -130 -55 -15 -41 -12 -54 19
-86 25 -24 38 -29 78 -29 28 0 58 7 71 16 20 14 22 14 22 0 0 -12 10 -16 35
-16 l35 0 0 108 c0 118 -8 140 -60 167 -36 19 -115 19 -157 0z m137 -175 c0
-45 -88 -65 -104 -24 -10 27 13 44 60 44 37 0 44 -3 44 -20z"/>
<path d="M3993 2595 c-35 -15 -39 -25 -23 -56 9 -15 15 -17 30 -9 26 14 103
13 118 -2 26 -26 13 -38 -38 -38 -66 0 -117 -22 -130 -55 -15 -41 -12 -54 19
-86 25 -24 38 -29 78 -29 28 0 58 7 71 16 20 14 22 14 22 0 0 -12 10 -16 35
-16 l35 0 0 108 c0 118 -8 140 -60 167 -36 19 -115 19 -157 0z m137 -175 c0
-45 -88 -65 -104 -24 -10 27 13 44 60 44 37 0 44 -3 44 -20z"/>
<path d="M4290 2465 l0 -145 40 0 40 0 0 145 0 145 -40 0 -40 0 0 -145z"/>
</g>
</svg>
